<svg id="Calque_1" data-name="Calque 1" xmlns="http://www.w3.org/2000/svg" viewBox="0 0 485.5 118.8"><defs><style>.cls-1{fill:#74b74a;}.cls-2{fill:#979797;}.cls-3{fill:#333;}.cls-4{fill:#969696;}</style></defs><title>evolvingweb-logo</title><circle class="cls-1" cx="95.1" cy="88.4" r="16.1"/><path class="cls-2" d="M76,92.3A16.1,16.1,0,1,1,59.9,76.2,16.1,16.1,0,0,1,76,92.3Z" transform="translate(-4.1 -3.9)"/><circle class="cls-3" cx="16.1" cy="88.4" r="16.1"/><path class="cls-3" d="M115.3,53.6A16.1,16.1,0,1,1,99.2,37.5,16.1,16.1,0,0,1,115.3,53.6Z" transform="translate(-4.1 -3.9)"/><path class="cls-2" d="M76,20A16.1,16.1,0,1,1,59.9,3.9,16.1,16.1,0,0,1,76,20Z" transform="translate(-4.1 -3.9)"/><path class="cls-3" d="M163.1,94.6H140.9q0,6.7,6.5,6.7a5.6,5.6,0,0,0,5.1-2.8h10.2a13.8,13.8,0,0,1-3.6,6.3q-4.3,4-11.6,4-9.2,0-13.9-5.6A15.5,15.5,0,0,1,130.2,93a16,16,0,0,1,4.3-11.6q4.4-4.5,12.3-4.5,9.8,0,14,7.1a18,18,0,0,1,2.4,9.3v1.4Zm-9.9-6q-1.1-5.1-6-5.1a5.7,5.7,0,0,0-6,5.1h12Z" transform="translate(-4.1 -3.9)"/><path class="cls-3" d="M198.7,77.7l-15.6,29.9H176L160.6,77.7h11.9L179.6,93l7.2-15.3h11.8Z" transform="translate(-4.1 -3.9)"/><path class="cls-3" d="M232.1,92.7a15.2,15.2,0,0,1-4.1,10.7q-5,5.4-13.9,5.4t-13.9-5.4a15.5,15.5,0,0,1-4.1-10.9,14.9,14.9,0,0,1,4.1-10.3q5-5.4,14.2-5.4T228,82.1A15,15,0,0,1,232.1,92.7Zm-11,0a6.9,6.9,0,0,0-7-7,6.6,6.6,0,0,0-5.3,2.5,6.9,6.9,0,0,0,0,9,6.6,6.6,0,0,0,5.3,2.5A6.9,6.9,0,0,0,221.1,92.7Z" transform="translate(-4.1 -3.9)"/><path class="cls-3" d="M243.8,107.6H233.2V59.2h10.6v48.4Z" transform="translate(-4.1 -3.9)"/><path class="cls-3" d="M280.5,77.7l-15.6,29.9h-7.1L242.4,77.7h11.9L261.5,93l7.2-15.3h11.8Z" transform="translate(-4.1 -3.9)"/><path class="cls-3" d="M290.3,66.2a5.9,5.9,0,0,1-5.9,5.9,5.7,5.7,0,0,1-4.2-1.7,5.9,5.9,0,0,1,8.4-8.4A5.7,5.7,0,0,1,290.3,66.2Zm-0.6,41.4H279.1V77.7h10.6v29.9Z" transform="translate(-4.1 -3.9)"/><path class="cls-3" d="M326.2,107.6H315.6V92.5c0-2.6-.3-4.4-0.9-5.2a4.5,4.5,0,0,0-3.9-1.9,5.5,5.5,0,0,0-4,1.6,6.3,6.3,0,0,0-1.5,4.6v16H294.6V77.7h10.6v3.8a13.6,13.6,0,0,1,3.4-3,12.6,12.6,0,0,1,6.3-1.4,11.6,11.6,0,0,1,7.8,2.6q3.4,3,3.4,8.9v19Z" transform="translate(-4.1 -3.9)"/><path class="cls-3" d="M361.9,105.5a29.4,29.4,0,0,1-.6,6.3,12.7,12.7,0,0,1-4.5,6.9q-4.6,3.9-12.2,3.9t-12.7-4.2a12.6,12.6,0,0,1-4-5.9,11.6,11.6,0,0,1-.3-1.4h11.9a4.3,4.3,0,0,0,1.4,2.1,5.9,5.9,0,0,0,3.6,1.1,6.6,6.6,0,0,0,5.6-2.6,7.7,7.7,0,0,0,1.2-4.7v-2.8a17.8,17.8,0,0,1-3.2,2.4,12.8,12.8,0,0,1-6.3,1.5,14.6,14.6,0,0,1-8.2-2.4,13.4,13.4,0,0,1-5.3-6.6,17,17,0,0,1-1.1-6.2,16.1,16.1,0,0,1,4.7-12,14.4,14.4,0,0,1,10.5-4.3,12.4,12.4,0,0,1,5.8,1.3,11.9,11.9,0,0,1,3.2,2.6V77.7h10.6v27.8Zm-10.1-13a6.9,6.9,0,0,0-2-4.9,6.4,6.4,0,0,0-4.8-2.1,6.4,6.4,0,0,0-5.2,2.4,7,7,0,0,0-1.6,4.5,6.8,6.8,0,0,0,2,4.9,6.7,6.7,0,0,0,9.6,0A6.8,6.8,0,0,0,351.8,92.6Z" transform="translate(-4.1 -3.9)"/><path class="cls-4" d="M423.1,77.7l-15.7,29.9h-7.1L393,91.2l-7.1,16.4h-7.1L363.3,77.7h11.8l7.2,15.8,7.5-15.8h6.6l7.5,16.2,7.5-16.2h11.8Z" transform="translate(-4.1 -3.9)"/><path class="cls-4" d="M453.5,94.6H431.3q0,6.7,6.5,6.7a5.6,5.6,0,0,0,5.1-2.8h10.2a13.8,13.8,0,0,1-3.6,6.3q-4.3,4-11.6,4-9.2,0-13.9-5.6A15.4,15.4,0,0,1,420.6,93,16,16,0,0,1,425,81.3q4.4-4.5,12.3-4.5,9.8,0,14,7.1a18,18,0,0,1,2.4,9.3v1.4Zm-9.9-6q-1.1-5.1-6-5.1a5.7,5.7,0,0,0-6,5.1h12Z" transform="translate(-4.1 -3.9)"/><path class="cls-4" d="M489.5,92.6a15.3,15.3,0,0,1-5.2,12.1,14.6,14.6,0,0,1-9.9,3.8,12.3,12.3,0,0,1-6.1-1.5,9.9,9.9,0,0,1-3.1-2.8v3.3H454.6V59.2h10.6V80.7a12,12,0,0,1,3.3-2.5,13.6,13.6,0,0,1,6-1.4,14.4,14.4,0,0,1,9.7,3.6A15.3,15.3,0,0,1,489.5,92.6Zm-11,0a6.7,6.7,0,0,0-1.6-4.4,6.5,6.5,0,0,0-5.2-2.4,6.8,6.8,0,1,0,0,13.6,6.4,6.4,0,0,0,5.2-2.4A6.7,6.7,0,0,0,478.5,92.7Z" transform="translate(-4.1 -3.9)"/></svg>